<svg viewBox="227.79683246871463 165.44958937644958 117.91375587428857 158.7893715763092"
  xmlns="http://www.w3.org/2000/svg" style="max-height: 500px" width="117.91375587428857"
  height="158.7893715763092">
  <svg style="overflow: visible;" preserveAspectRatio="xMinYMin" width="109.50732986179315"
    height="152.46995544433594" xml:space="preserve"
    viewBox="489.20001220703125 230.29998779296875 1021.6000366210938 1422.39990234375"
    y="167.60999870300293" x="232.746" id="Layer_1" version="1.1"
    xmlns:xlink="http://www.w3.org/1999/xlink" xmlns="http://www.w3.org/2000/svg"><path style="fill: #ffffff;" d="M1000,1652.7c-281.6,0-510.8-229.2-510.8-510.8V741.1c0-281.6,229.2-510.8,510.8-510.8  c281.6,0,510.8,229.2,510.8,510.8v400.9C1510.8,1423.6,1281.7,1652.7,1000,1652.7z M518.4,911.4v230.6  c0,265.6,216,481.6,481.6,481.6c265.5,0,481.6-216,481.6-481.6s-216-481.6-481.6-481.6c-132.8,0-261.1,55.7-351.9,152.7l-21.3-20  c96.3-102.9,232.3-162,373.2-162c221.9,0,411.3,142.3,481.6,340.5V741.1c0-265.6-216-481.6-481.6-481.6  c-265.6,0-481.6,216-481.6,481.6s216,481.6,481.6,481.6c132.9,0,261.1-55.7,351.8-152.7l21.3,20c-96.2,102.9-232.3,162-373.2,162  C778,1251.9,588.7,1109.5,518.4,911.4z" fill="#ffffff"/></svg>
  <svg style="overflow: visible;" width="189.86000061035156" height="38.05000305175781"
    x="192.56999969482422"
    viewBox="3.5299999713897705 9.239999771118164 189.86000061035156 38.05000305175781"
    y="362.30499935150146">
    <g style="" fill-opacity="1" fill="#ffffff">
      <path transform="translate(0, 0)"
        d="M7.01 39.48L3.53 39.48L3.53 9.24L7.01 9.24L7.01 20.92Q8.15 19.28 10.02 18.44Q11.89 17.60 13.78 17.60L13.78 17.60Q15.96 17.60 17.66 18.44Q19.36 19.28 20.37 20.98Q21.38 22.68 21.38 25.24L21.38 25.24L21.38 39.48L17.85 39.48L17.85 25.87Q17.85 22.93 16.48 21.67Q15.12 20.41 12.73 20.41L12.73 20.41Q11.13 20.41 9.83 21.17Q8.53 21.92 7.77 23.25Q7.01 24.57 7.01 26.21L7.01 26.21L7.01 39.48ZM40.25 39.90L39.92 39.90Q37.15 39.90 35.03 38.64Q32.90 37.38 31.73 34.97Q30.55 32.55 30.55 29.15L30.55 29.15L30.55 28.35Q30.55 24.91 31.79 22.49Q33.03 20.08 35.19 18.84Q37.36 17.60 40.13 17.60L40.13 17.60L40.51 17.60Q42.98 17.60 44.96 18.65Q46.93 19.70 48.05 21.71Q49.16 23.73 49.16 26.50L49.16 26.50L49.16 29.15L34.16 29.15Q34.16 31.75 34.88 33.56Q35.59 35.36 36.94 36.31Q38.28 37.25 40.21 37.25L40.21 37.25Q41.77 37.25 43.03 36.62Q44.29 35.99 45.04 34.71Q45.80 33.43 45.80 31.50L45.80 31.50L49.16 31.50Q49.16 34.10 47.96 35.97Q46.76 37.84 44.75 38.87Q42.73 39.90 40.25 39.90L40.25 39.90ZM34.21 26.84L34.21 26.84L45.71 26.84Q45.71 23.48 44.24 21.84Q42.77 20.20 40.17 20.20L40.17 20.20Q37.78 20.20 36.10 21.86Q34.42 23.52 34.21 26.84ZM61.78 39.48L58.29 39.48L58.29 18.02L60.77 18.02L61.31 21.17Q62.49 19.45 64.38 18.52Q66.27 17.60 68.45 17.60L68.45 17.60Q70.68 17.60 72.40 18.44Q74.12 19.28 75.11 20.98Q76.10 22.68 76.10 25.24L76.10 25.24L76.10 39.48L72.57 39.48L72.57 25.87Q72.57 22.93 71.23 21.67Q69.88 20.41 67.49 20.41L67.49 20.41Q65.89 20.41 64.59 21.17Q63.29 21.92 62.53 23.25Q61.78 24.57 61.78 26.21L61.78 26.21L61.78 39.48ZM89.77 39.48L86.28 39.48L86.28 18.02L88.80 18.02L89.35 21.17Q89.39 21.13 89.70 20.58Q90.02 20.03 90.73 19.34Q91.45 18.65 92.58 18.12Q93.71 17.60 95.35 17.60L95.35 17.60Q97.66 17.60 99.11 18.52Q100.56 19.45 101.30 21.02Q102.03 22.60 102.03 24.53L102.03 24.53Q102.03 24.99 101.99 25.37Q101.95 25.75 101.90 25.91L101.90 25.91L98.88 25.91L98.88 25.16Q98.88 24.15 98.48 23.06Q98.08 21.97 97.12 21.19Q96.15 20.41 94.39 20.41L94.39 20.41Q93.08 20.41 92.20 20.96Q91.32 21.50 90.77 22.34Q90.23 23.18 90.00 24.11Q89.77 25.03 89.77 25.83L89.77 25.83L89.77 39.48ZM111.50 47.29L111.50 47.29Q110.70 47.29 109.97 47.15Q109.23 47.00 108.52 46.70L108.52 46.70L108.52 43.85Q108.98 44.06 109.67 44.23Q110.36 44.39 110.99 44.39L110.99 44.39Q112.09 44.39 112.80 43.93Q113.51 43.47 114.12 42.32Q114.73 41.16 115.53 39.14L115.53 39.14L107.05 18.02L110.83 18.02L117.25 34.69L117.46 34.69L123.80 18.02L127.25 18.02L119.06 38.72Q118.13 41.08 117.19 43.01Q116.24 44.94 114.92 46.12Q113.60 47.29 111.50 47.29ZM150.89 39.48L147.40 39.48L147.40 9.24L150.89 9.24L150.89 39.48ZM165.19 39.48L161.66 39.48L161.66 18.02L165.19 18.02L165.19 39.48ZM165.31 12.35L161.53 12.35L161.53 9.24L165.31 9.24L165.31 12.35ZM179.06 39.48L175.58 39.48L175.58 18.02L178.06 18.02L178.60 21.17Q179.78 19.45 181.67 18.52Q183.56 17.60 185.74 17.60L185.74 17.60Q187.97 17.60 189.69 18.44Q191.41 19.28 192.40 20.98Q193.39 22.68 193.39 25.24L193.39 25.24L193.39 39.48L189.86 39.48L189.86 25.87Q189.86 22.93 188.51 21.67Q187.17 20.41 184.78 20.41L184.78 20.41Q183.18 20.41 181.88 21.17Q180.58 21.92 179.82 23.25Q179.06 24.57 179.06 26.21L179.06 26.21L179.06 39.48Z" />
    </g>
  </svg>
</svg>